<svg width="52" height="51" viewBox="0 0 52 51" fill="none" xmlns="http://www.w3.org/2000/svg">
<g id="Layer-3">
<path id="Vector" d="M25.8726 2.354C21.2525 2.354 19.3159 3.04769 15.63 4.75386C15.6515 4.74578 16.739 4.58857 17.8257 4.7011C18.9124 4.81363 19.7421 5.1889 19.9766 5.20392C22.6659 4.62369 22.8996 4.39516 25.6051 4.39516C32.7414 4.39524 39.1724 8.03612 42.9723 13.4672C42.9723 13.4672 43.3257 13.2629 43.6671 13.1854C44.0085 13.1078 44.338 13.157 44.338 13.157C44.338 13.157 44.9105 13.2622 45.3226 13.4842C45.7347 13.7061 45.9866 14.0449 45.9866 14.0449C41.9726 7.60185 34.0281 2.354 25.8726 2.354ZM9.73168 9.04799C7.17867 11.7747 3.13219 17.467 3.13226 25.0739C3.13219 25.9952 3.23967 27.0422 3.3463 27.9348C3.3463 27.9348 3.56334 27.279 3.89496 26.875C4.2312 26.4653 4.344 26.3363 4.5851 26.1523C4.57778 25.5696 4.5851 26.0371 4.5851 25.3941C4.5851 19.9275 5.94418 16.251 9.0908 12.2902C9.12866 12.0898 8.98009 11.7061 9.08572 10.8866C9.21772 9.86268 9.71171 9.07533 9.73168 9.04799ZM47.5796 17.9856C47.5796 17.9856 47.6088 18.6849 47.2778 19.578C47.0348 20.2336 47.0545 20.1603 46.7312 20.6499C46.5277 20.9581 46.2083 21.213 46.2083 21.213C46.4829 22.5646 46.6275 23.9614 46.6275 25.3941C46.6275 26.462 46.5899 27.4277 46.4353 28.4286C46.4343 28.4348 46.8853 28.8155 47.2726 29.2899C47.6454 29.7465 48.016 30.4796 48.0178 30.4705C48.07 30.1996 48.1179 29.9466 48.1618 29.7087C48.5331 27.6934 48.6154 26.7536 48.6154 25.0739C48.6154 22.5308 48.2547 20.1236 47.5796 17.9856Z" fill="#02A1E3"/>
<path id="Vector_2" d="M45.8835 19.9169C46.1568 19.6107 46.3256 19.2308 46.4714 18.6893C46.6749 17.934 46.5851 17.8291 46.4907 16.8431C46.3962 15.8571 46.473 16.3139 46.0472 15.2408C45.6214 14.1676 44.6632 14.1386 44.1632 13.9571C44.0381 13.9117 43.8812 13.8959 43.715 13.8969C43.5545 13.8979 43.3855 13.915 43.2307 13.9378C42.9051 13.9858 42.6404 14.0582 42.6404 14.0582C42.6404 14.0582 41.3002 14.2037 41.1562 13.9595C41.0122 13.7152 40.6154 13.2361 39.9033 12.4623C39.1911 11.6886 39.0155 11.67 38.7684 11.6102C38.5214 11.5505 38.2814 11.335 37.8986 11.1216C37.5159 10.9083 37.9155 11.0754 37.0192 10.7413C36.1229 10.4072 35.7204 10.4871 35.2121 10.6474C34.7038 10.8078 34.5715 11.0748 34.2772 11.0614C33.9829 11.048 33.6888 10.9142 33.234 11.2082C32.7791 11.5022 32.6985 11.6234 32.2437 11.757C31.7888 11.8907 31.4816 12.0788 31.1739 12.4262C30.8661 12.7737 30.8915 13.039 30.6776 13.6538C30.4635 14.2685 30.3401 14.0743 30.1532 14.0755C29.9664 14.0767 29.6613 14.0433 29.5153 14.1823C29.2853 14.4014 29.3037 14.5244 29.2222 15.0354C29.1407 15.5464 29.2024 15.9198 29.1909 16.3256C29.1794 16.7313 29.184 17.0933 29.3258 17.4111C29.4677 17.729 29.5291 17.867 29.5403 18.2271C29.5515 18.5873 29.4741 18.6962 29.4993 19.0239C29.5244 19.3515 29.5691 19.5846 29.7162 19.8832C29.8632 20.1817 29.9548 20.3452 30.1426 20.4705C30.3305 20.5957 30.4402 20.7003 30.5233 20.9543C30.6065 21.2083 30.5844 21.3671 30.5523 21.6667C30.5201 21.9664 30.381 22.2279 30.2261 22.5032C30.0668 22.7864 30.1273 22.6749 29.957 22.9171C29.8012 23.1387 29.7031 23.3605 29.882 23.5488C30.061 23.7371 30.425 23.7995 30.5944 23.8709C30.7816 23.9497 30.8308 24.308 30.9281 24.4685C31.0254 24.6291 31.2097 24.9069 31.345 25.2316C31.4802 25.5563 31.4528 25.5677 31.7281 25.802C32.0033 26.0364 32.0493 26.1796 32.2244 26.4255C32.3995 26.6713 32.3712 26.9536 32.675 27.162C32.9788 27.3704 33.3321 27.192 33.7881 27.0368C34.2441 26.8817 34.4312 26.7489 34.8362 26.5458C35.2412 26.3427 35.3782 26.2918 35.694 26.2377C36.0099 26.1836 36.2417 26.3508 36.5517 26.6493C36.8618 26.9478 36.8669 27.1456 37.1927 27.7878C37.5184 28.43 37.4775 28.6153 37.3951 29.0226C37.3126 29.43 36.863 29.3825 36.4288 29.3332C35.9947 29.2837 35.8463 29.2989 35.3494 29.4968C34.8526 29.6948 34.6761 30.0534 34.2387 30.4476C33.8013 30.8418 33.5231 31.3237 33.5231 31.3237C33.5231 31.3237 33.0461 31.8483 32.7183 32.455C32.3905 33.0617 32.0553 33.3143 31.8341 33.7043C31.6128 34.0943 31.587 34.1125 31.4172 34.5949C31.2474 35.0772 31.1445 35.3583 31.1642 35.719C31.184 36.0797 31.128 36.2866 31.0269 36.7973C30.9257 37.3081 30.7082 37.459 30.5667 37.6518C30.4252 37.8445 30.3029 37.8643 30.1475 37.8371C29.992 37.81 30.0187 37.6427 29.9451 37.375C29.8714 37.1073 29.947 37.0765 29.7933 36.8527C29.6395 36.6289 29.3046 36.2483 29.2776 36.0415C29.2507 35.8347 29.2897 35.804 28.9885 35.6323C28.6872 35.4606 28.7792 35.393 28.6801 35.1629C28.581 34.9329 28.6819 34.8466 28.5982 34.6839C28.5145 34.5213 28.3976 34.5685 28.191 34.4216C27.9844 34.2748 28.1029 34.2013 28.1448 33.8888C28.1867 33.5764 28.3787 33.5659 28.5162 33.6537C28.6538 33.7416 28.8815 33.841 28.9933 33.7789C29.1051 33.7169 29.3159 33.2124 29.6198 32.6524C29.9236 32.0924 29.9361 31.8592 30.1884 31.3983C30.4407 30.9375 30.5975 30.5322 30.7065 30.1587C30.8153 29.7852 30.6784 29.298 30.6365 28.9721C30.5947 28.6463 30.1823 28.006 30.345 27.4677C30.5077 26.9294 30.2033 26.3437 30.0626 26.0218C29.9217 25.6999 29.5181 25.1618 29.2098 25.0341C28.9016 24.9065 28.6013 24.7406 28.2416 24.7261C27.8818 24.7117 27.3924 24.3209 26.8134 24.2206C26.2344 24.1203 26.1235 24.2346 25.2542 24.14C24.3849 24.0454 23.4216 24.4962 23.201 24.6394C22.9804 24.7826 22.5128 24.9876 22.2854 25.0318C22.058 25.0759 21.8003 25.2821 21.5457 25.4698C21.2911 25.6576 20.9301 26.1015 20.7241 26.3027C20.518 26.5039 20.2673 27.2114 20.193 27.4555C20.1188 27.6996 20.0866 27.7861 20.1751 27.9473C20.2637 28.1085 20.4792 28.2795 20.4904 28.4113C20.5016 28.543 20.4404 28.7113 20.4133 28.895C20.3862 29.0789 20.447 29.649 20.5024 29.8266C20.5579 30.0041 20.7442 30.2769 20.8711 30.5102C20.998 30.7435 21.0065 30.7235 20.9964 30.9314C20.9862 31.1394 20.6513 31.6143 20.6513 31.6143C20.6513 31.6143 20.3855 31.9575 20.4486 32.0573C20.5358 32.1951 20.8023 32.3153 20.8636 32.3913C21.0309 32.5992 20.9696 32.68 21.0229 32.8714C21.0762 33.0629 21.0285 33.1674 21.0398 33.3552C21.051 33.5432 21.0275 33.6099 21.1169 33.7596C21.2062 33.9094 21.267 34.0321 21.2975 34.2266C21.3281 34.4211 21.3625 34.5959 21.3795 34.7489C21.3964 34.902 21.5941 35.2464 21.7601 35.3122C21.9262 35.3779 22.4179 35.4229 22.7384 35.37C23.0589 35.317 23.3392 35.2788 23.4709 35.3073C23.6025 35.3359 23.5643 35.9591 23.5528 36.0848C23.5414 36.2106 23.5636 36.2464 23.2829 36.5951C23.0023 36.9438 22.9547 37.0912 22.7528 37.452C22.551 37.8129 22.442 37.8481 22.3312 38.1838C22.2204 38.5194 22.342 38.6133 22.2686 38.9613C22.1952 39.3092 21.9546 39.1602 21.7312 39.2934C21.5079 39.4266 21.209 39.5373 20.8277 39.5221C20.4464 39.5067 20.1334 38.9486 19.9916 38.6676C19.8498 38.3866 19.8397 37.6242 19.8471 37.3509C19.8544 37.0777 19.6827 35.7752 19.5507 35.4518C19.4187 35.1283 19.3973 35.1822 19.3917 34.708C19.386 34.2339 19.2931 34.0236 19.211 33.7621C19.1288 33.5005 18.7012 32.1354 18.6689 31.7473C18.6365 31.3594 18.5404 31.2083 18.3894 30.9819C18.2383 30.7556 18.1397 30.0434 18.0858 29.8386C18.0318 29.6338 17.784 29.4509 17.6544 29.1599C17.525 28.8688 17.4817 27.8889 17.3846 27.641C17.2875 27.3931 17.1712 27.3308 17.1316 27.1981C17.0921 27.0654 16.9459 26.7392 16.9461 26.4206C16.9463 26.1021 17.1512 25.9994 17.2834 25.7852C17.4156 25.571 17.4891 25.5459 17.6569 25.3134C17.8247 25.0809 18.0029 24.9593 18.1701 24.7381C18.3373 24.517 18.4979 24.416 18.6255 24.2952C18.753 24.1745 18.7943 24.0805 18.8471 23.8234C18.9 23.5664 18.9198 23.3323 19.0351 23.0171C19.1504 22.7019 19.3016 22.5528 19.4423 22.3576C19.583 22.1623 20.1207 22.1774 20.2711 22.1506C20.4216 22.1237 20.8643 22.2068 21.059 22.2108C21.2537 22.2148 21.518 22.3065 22.1288 22.153C22.7396 21.9995 22.6726 21.9785 23.0252 21.7799C23.3777 21.5814 23.3382 21.281 23.4154 21.0578C23.4927 20.8346 23.3883 20.4584 23.336 20.1624C23.2835 19.8664 23.4928 19.9743 23.6468 19.7171C23.8007 19.4599 23.5112 19.333 23.6251 19.3247C23.739 19.3165 23.918 19.2112 23.9576 19.1514C23.9972 19.0917 23.9381 18.8624 23.9022 18.682C23.8662 18.5017 23.87 18.2177 23.8371 17.9864C23.8043 17.7551 24.0569 17.7216 24.1359 17.6543C24.2148 17.5869 24.5982 17.5776 24.8105 17.5195C25.0229 17.4614 25.075 17.2337 25.1093 17.103C25.1436 16.9725 24.9488 16.7482 24.76 16.4724C24.5711 16.1967 24.428 15.7651 24.2347 15.5096C24.0413 15.2541 23.8573 14.7198 23.7744 14.542C23.6916 14.3641 24.0149 14.1798 24.1142 14.0365C24.2135 13.8932 24.2093 13.5077 24.213 13.1989C24.2166 12.8901 23.9644 10.994 23.9142 10.7485C23.864 10.503 24.2608 10.3213 24.6515 10.0577C25.0422 9.79407 25.074 9.77351 25.0546 9.63887C25.03 9.46733 24.9337 9.38445 24.6033 9.11171C24.2729 8.83904 24.2154 8.66658 23.8275 8.3078C23.4396 7.94902 22.6935 7.54726 22.0614 7.17408C21.4292 6.80089 20.8444 6.54602 20.5314 6.39905C20.2183 6.25209 19.0069 5.93845 18.4954 5.83577C18.2683 5.79017 18.0899 5.778 17.9026 5.76599C17.6681 5.75089 17.4209 5.73895 17.0618 5.6962C16.9003 5.67695 16.7278 5.67055 16.5533 5.6721C16.0301 5.67672 15.4989 5.74511 15.2739 5.6962C14.974 5.63096 13.724 5.86858 13.3922 5.99706C13.3699 6.00561 13.3534 6.01547 13.3319 6.02356C13.0547 6.12723 12.826 6.20834 12.585 6.53862C12.565 6.56597 12.545 6.58214 12.5248 6.61326C12.2412 7.04891 12.049 6.96133 11.4092 7.7855C10.7693 8.60959 10.6489 9.27993 10.2382 10.4717C10.1498 10.7279 10.1026 10.938 10.0647 11.1385C9.92633 11.8703 10.0606 12.3171 10.1153 12.9918C10.1851 13.8515 10.206 13.8821 10.2912 14.6022C10.3764 15.3223 10.6384 16.5425 10.8574 17.404C11.0764 18.2653 11.3028 18.777 11.5971 19.6377C11.8914 20.4983 11.5911 20.6278 11.2164 21.3033C10.8418 21.9788 10.7075 21.9311 10.2864 22.3865C9.86526 22.8418 9.23303 22.8387 8.49377 23.33C7.75444 23.8214 7.06822 24.5091 6.34693 25.1593C5.62564 25.8096 4.72054 27.1042 4.72054 27.1042L4.69648 27.1403C4.67443 27.1676 4.65739 27.197 4.63627 27.2246C4.47134 27.4404 4.32963 27.665 4.22184 27.8986L4.16879 27.9828L4.17118 27.9996C4.03672 28.3193 3.55529 29.0345 3.65799 29.8049C3.76084 30.5767 4.02353 31.3132 4.2617 32.0439C7.21834 41.1171 15.7537 47.6747 25.8225 47.6747C30.2941 47.6747 34.4241 46.4269 37.9083 44.2471C37.9097 44.2461 37.9116 44.2456 37.9131 44.2446C37.9155 44.2431 37.9178 44.2414 37.9203 44.2398C42.0785 41.6346 45.2625 37.8278 47.0574 33.1245C47.1951 32.7637 47.2432 32.3743 47.2982 31.9877C47.3494 31.6283 47.1954 31.271 47.0955 31.0373C46.8777 30.5281 46.3606 29.9806 46.3606 29.9806C46.3606 29.9806 46.2265 29.8033 46.1341 29.6798C45.9142 29.3859 45.577 28.9501 45.2956 28.7121C44.8961 28.3741 44.219 27.7174 43.5367 27.2101C42.8545 26.7028 42.5764 26.2498 42.038 25.3543C41.4997 24.4588 41.6959 24.3275 41.5899 23.7055C41.484 23.0836 41.9019 23.2277 42.2164 22.8005C42.5309 22.3732 42.6862 22.3785 42.8983 22.218C43.1102 22.0575 43.3653 21.8535 43.4669 21.6379C43.5684 21.4223 43.6477 21.1028 44.1391 20.9591C44.6305 20.8155 44.9872 20.6117 45.5076 20.2514C45.655 20.1495 45.7756 20.0377 45.8835 19.9169Z" fill="#01439D"/>
<g id="Layer-2">
<path id="Vector_3" d="M25.5257 0C11.4286 0 0 11.4171 0 25.5C7.71023e-05 39.5828 11.4286 51 25.5257 51C39.6228 51 51.0489 39.5828 51.0489 25.5C51.0489 11.4171 39.6228 0 25.5257 0ZM26.3617 1.10161C39.5581 1.10161 49.7891 11.6149 49.7891 24.798C49.7891 37.981 38.833 48.9637 25.6367 48.9637C12.4403 48.9637 2.09618 37.8746 2.09618 24.6915C2.09618 11.5084 13.1654 1.10161 26.3617 1.10161Z" fill="#02A1E3"/>
</g>
</g>
</svg>
