<svg width="400" height="500" viewBox="0 0 400 500" fill="none" xmlns="http://www.w3.org/2000/svg">
<rect width="400" height="400" rx="10" fill="#02A1E3"/>
<path d="M87.9014 203.336C89.0883 202.721 90.2365 202.203 91.3384 201.76V157.298C91.3384 156.829 91.7169 156.45 92.1855 156.45H97.2625C97.7311 156.45 98.1095 156.829 98.1095 157.298V173.332H109.523V166.509C107.422 166.491 105.72 164.777 105.72 162.673V162.442C105.72 160.325 107.44 158.605 109.553 158.605H124.249C126.363 158.605 128.085 160.325 128.085 162.442V162.673C128.085 164.777 126.381 166.491 124.28 166.509V173.332H138.322V171.841C134.723 170.639 132.315 167.719 132.315 164.481C132.315 160.348 136.141 156.942 141.007 156.566C138.896 153.67 138.167 150.326 139.014 147.159C140.253 142.54 144.743 139.263 150.26 138.761C146.759 134.667 145.415 129.634 146.658 124.984C147.781 120.79 150.832 117.389 155.247 115.409C158.133 114.117 161.385 113.55 164.716 113.7C160.285 110.649 157.471 107.364 155.679 103.244C147.258 83.8863 162.469 60.123 172.283 47.6801C187.676 28.17 206.182 27.5959 213.419 28.2498C226.467 29.4367 232.077 38.1207 233.401 40.5511C236.23 40.0697 239.533 41.0969 243.241 43.62C254.157 51.0425 267.781 71.7806 269.874 89.6688C271.458 103.201 264.095 111.962 257.784 116.874C267.485 115.219 276.633 119.848 278.772 127.85C280.018 132.499 278.674 137.533 275.17 141.626C280.69 142.131 285.18 145.406 286.416 150.024C287.263 153.191 286.54 156.535 284.426 159.434C289.294 159.808 293.118 163.214 293.118 167.349C293.118 171.731 288.818 175.294 283.538 175.294C278.255 175.294 273.958 171.731 273.958 167.349C273.958 166.803 274.022 166.267 274.156 165.74C273.389 165.889 272.616 165.966 271.849 166.01C281.272 191.259 285.039 228.505 281.306 238.955C280.294 241.782 276.522 244.951 271.162 248.206C271.991 252.801 300.172 397.559 300.458 399.034C300.535 399.428 300.326 399.819 299.956 399.974C299.832 400.028 294.382 402.278 284.205 404.778L294.657 456.045C294.686 456.107 294.722 456.166 294.735 456.236L298.202 474.667C298.246 474.744 298.287 474.824 298.308 474.917C298.326 475.017 298.321 475.118 298.305 475.213L301.292 491.08C301.372 491.492 301.132 491.901 300.736 492.035C300.623 492.076 289.364 495.887 274.813 497.632C268.533 498.387 260.158 499.167 252.432 499.167C243.225 499.167 234.94 498.057 232.221 494.471C231.04 492.913 230.896 491.029 231.794 488.863C236.454 477.633 262.269 470.128 267.483 468.715C266.919 467.028 265.534 462.992 263.652 458.236L249.299 458.646C249.291 458.646 249.283 458.646 249.275 458.646C248.912 458.646 248.588 458.417 248.472 458.069C248.349 457.706 236.323 421.956 232.999 411.387C230.012 411.48 226.941 411.531 223.777 411.531C222.515 411.531 221.236 411.523 219.946 411.508C219.495 411.503 219.127 411.145 219.112 410.694L218.468 393.069L203.747 393.633C204.421 415.421 205.307 438.793 206.144 458.401C206.146 458.447 206.126 458.491 206.12 458.538C206.136 458.592 206.162 458.643 206.164 458.702L207.148 488.189C207.161 488.562 206.926 488.899 206.574 489.018C206.463 489.059 195.202 492.869 180.65 494.615C174.373 495.369 165.998 496.149 158.272 496.149C149.065 496.149 140.778 495.04 138.059 491.453C136.877 489.896 136.733 488.011 137.632 485.846C142.338 474.508 168.604 466.967 173.465 465.659C173.295 464.413 172.919 461.689 172.458 458.288L163.202 458.01C162.793 457.994 162.448 457.691 162.391 457.284C162.355 457.024 158.674 431.193 156.771 406.729C149.233 404.943 141.828 402.711 141.313 402.554C140.94 402.443 140.695 402.09 140.714 401.701C141.89 378.986 148.275 312.299 153.44 260.221C153.2 259.868 152.968 259.51 152.768 259.142C152.703 259.026 152.678 258.903 152.67 258.777C150.971 257.451 149.745 256.014 149.343 254.49C149.323 254.408 149.325 254.323 149.331 254.24C147.243 252.809 146.29 251.514 145.888 250.788H97.0617C93.9053 250.788 91.3384 248.221 91.3384 245.065V243.504C91.0655 243.543 90.7643 243.571 90.4348 243.571C89.7345 243.571 88.9286 243.453 88.1176 243.09C86.5523 242.39 85.3835 240.984 84.6368 238.906C83.0509 234.481 81.0273 225.243 81.519 220.114C81.707 218.165 82.3918 216.397 83.3676 214.819C82.1472 214.721 81.1431 214.059 80.6977 212.919C79.8198 210.673 81.1818 206.819 87.9014 203.336ZM158.061 214.208C156.969 216.057 155.36 218.353 153.079 220.861V228.392C153.079 232.459 149.768 235.768 145.7 235.768C142.881 235.768 140.459 234.164 139.215 231.839C131.723 236.229 122.73 239.702 112.445 242.155C112.048 242.444 111.593 242.642 111.047 242.696C110.908 242.711 110.769 242.717 110.637 242.717C107.893 242.717 106.513 239.882 105.998 238.492C103.202 239.576 100.352 240.631 98.1095 241.337V244.019H155.054C156.39 230.644 157.469 220.029 158.061 214.208ZM124.28 190.515C128.626 187.003 131.983 183.988 134.246 181.558C134.493 181.293 134.723 181.025 134.965 180.757H124.28V190.515ZM98.1095 200.048C102.337 199.675 105.607 200.787 109.523 202.455V180.757H98.1095V200.048Z" fill="#024598"/>
<path d="M204.1 137.596C215.605 138.033 220.307 130.977 220.501 130.676C220.529 130.632 220.57 130.607 220.604 130.571C220.969 129.584 221.35 128.692 221.742 127.875C219.88 126.842 218.376 124.768 218.484 121.947C215.896 122.571 213.213 122.911 210.476 122.911C209.654 122.911 208.828 122.882 207.999 122.823L205.318 122.63C203.817 122.525 202.359 122.289 200.923 121.996C200.925 122.122 200.917 122.26 200.923 122.381C200.971 123.589 201.026 124.961 198.832 126.565C198.123 127.081 196.962 127.431 195.201 127.963C195.167 127.973 195.129 127.986 195.095 127.993C195.09 128.122 195.054 128.245 194.99 128.361C194.853 129.62 194.802 132.339 196.445 134.466C197.938 136.404 200.516 137.457 204.1 137.596ZM238.31 105.224C238.544 104.823 239.059 104.687 239.468 104.92C239.507 104.943 239.533 104.982 239.569 105.01C239.69 104.997 239.811 105.005 239.929 105.046C244.696 106.722 249.295 104.36 252.011 101.598C254.967 98.5862 256.16 94.7394 255.05 91.7945C254.37 89.9906 253.255 88.7443 251.738 88.0839C248.468 86.6629 244.304 88.3383 244.26 88.3563C244.196 88.382 244.129 88.3846 244.062 88.3949C243.964 88.4308 243.861 88.4514 243.761 88.4514C243.519 88.4514 243.282 88.3512 243.115 88.1533C242.466 87.3927 228.401 70.6822 226.784 56.9782C225.347 60.1235 223.555 65.1703 225.071 68.2924C225.2 68.5571 225.182 68.8706 225.022 69.1173C224.863 69.364 224.646 69.4847 224.291 69.5053C223.047 69.4796 193.707 68.8166 186.587 64.6204C181.123 61.4006 180.227 56.6364 180.644 52.7537C178.618 56.6364 177.387 60.8995 177.07 65.327L175.553 86.5627C174.289 104.26 187.697 119.683 205.442 120.945L208.122 121.138C220.493 122.003 232.06 115.919 238.31 105.224ZM191.233 86.4034C191.397 82.1557 193.336 78.7818 195.559 78.8691C197.784 78.9539 199.452 82.4692 199.287 86.7143C199.12 90.962 197.184 94.3359 194.961 94.2511C192.737 94.1638 191.068 90.651 191.233 86.4034ZM200.776 71.949C200.737 72.4141 200.341 72.7662 199.862 72.7225C192.397 72.1032 188.333 74.9684 188.289 74.9967C188.14 75.1072 187.965 75.1585 187.792 75.1585C187.53 75.1585 187.275 75.0378 187.107 74.8116C186.835 74.4365 186.914 73.9097 187.29 73.6347C187.471 73.5011 191.846 70.3764 200.001 71.0368C200.467 71.0779 200.814 71.4839 200.776 71.949ZM205.498 93.0357C204.237 93.5316 203.487 94.0995 203.268 94.7265C203.057 95.3407 203.284 96.1989 203.961 97.3579C204.195 97.7613 204.062 98.2778 203.657 98.5116C203.523 98.5913 203.377 98.6273 203.23 98.6273C202.939 98.6273 202.656 98.4782 202.498 98.2084C201.898 97.1831 201.157 95.6465 201.669 94.174C202.063 93.0434 203.111 92.1569 204.88 91.4656C205.316 91.2986 205.805 91.5093 205.977 91.9436C206.147 92.3753 205.934 92.8661 205.498 93.0357ZM228.166 77.8901C228.13 77.8567 224.458 74.5238 216.96 74.2155C216.494 74.1975 216.131 73.8043 216.149 73.3392C216.169 72.8715 216.592 72.481 217.029 72.5298C225.208 72.8638 229.163 76.505 229.325 76.6592C229.665 76.9804 229.681 77.5124 229.361 77.849C229.194 78.0263 228.97 78.1162 228.746 78.1162C228.537 78.1162 228.329 78.0417 228.166 77.8901ZM216.615 87.3876C216.78 83.1399 218.719 79.7659 220.941 79.8507C223.163 79.9381 224.834 83.4508 224.667 87.6985C224.502 91.9461 222.566 95.3201 220.343 95.2327C218.119 95.1479 216.45 91.6352 216.615 87.3876ZM206.485 109.297C206.263 109.297 206.039 109.291 205.818 109.279C200.856 109.042 196.331 106.2 194.011 101.86C193.79 101.449 193.947 100.937 194.359 100.716C194.776 100.501 195.286 100.655 195.505 101.066C197.547 104.884 201.53 107.385 205.898 107.593C210.265 107.798 214.47 105.686 216.865 102.081C217.125 101.693 217.65 101.585 218.039 101.844C218.428 102.101 218.536 102.626 218.278 103.014C215.675 106.93 211.205 109.297 206.485 109.297ZM175.473 99.3725C172.34 99.8273 169.018 98.2161 166.487 94.9552C163.675 91.3294 162.794 86.889 164.298 83.9057C165.189 82.13 166.389 81.0431 167.859 80.6782C170.728 79.9664 173.833 82.1275 173.864 82.148C173.954 82.2123 174.055 82.2534 174.158 82.2791L173.859 86.4445C173.54 90.9543 174.14 95.3201 175.473 99.3725ZM169.757 250.867C170.192 250.872 170.581 250.574 170.64 250.142C170.702 249.708 170.421 249.299 169.991 249.199C165.624 248.194 158.295 245.789 157.219 243.618C157.088 243.356 157.077 243.14 157.186 242.904C158.635 239.727 175.007 242.194 186.175 244.962C186.366 245.011 186.574 244.985 186.752 244.9L190.231 243.191C193.996 245.933 201.453 256.335 204.262 264.463C204.213 264.471 204.162 264.466 204.113 264.484C203.928 264.548 185.256 270.838 175.656 269.533C169.028 268.626 160.85 265.581 156.362 260.819C162.4 264.008 170.756 266.141 175.164 266.442C175.185 266.444 175.203 266.444 175.224 266.444C175.664 266.444 176.035 266.105 176.068 265.658C176.099 265.19 175.746 264.789 175.28 264.756C168.781 264.316 155.638 260.184 151.935 255.454C153.338 256.158 155.033 256.857 157.121 257.504C164.087 259.668 171.034 259.971 174.366 259.971C175.553 259.971 176.282 259.93 176.385 259.925C176.854 259.899 177.209 259.501 177.183 259.033C177.158 258.571 176.792 258.219 176.29 258.239C176.194 258.242 166.77 258.733 157.623 255.893C151.605 254.022 149.012 251.782 147.946 250.487C159.39 250.327 169.651 250.862 169.757 250.867ZM94.8723 208.043C96.7726 207.491 97.7872 207.676 97.9829 207.925C99.5871 209.971 95.7735 214.542 94.195 216.107C88.2956 219.021 86.609 221.329 86.5394 221.426C86.2691 221.807 86.3592 222.333 86.7403 222.603C86.8896 222.709 87.0596 222.76 87.2295 222.76C87.4948 222.76 87.7549 222.637 87.9196 222.403C87.9325 222.387 89.5188 220.29 95.0164 217.587C95.3203 217.5 97.1306 217.009 98.946 217.009C100.504 217.009 102.049 217.374 102.621 218.672C103.419 220.481 100.787 222.462 100.259 222.837C94.2285 224.415 90.2475 225.923 86.9798 227.863C86.5781 228.102 86.4467 228.621 86.6862 229.022C86.8459 229.287 87.1265 229.433 87.4124 229.433C87.5617 229.433 87.7111 229.397 87.8475 229.315C90.9556 227.468 94.7873 226.018 100.604 224.492C101.127 224.672 102.636 225.33 102.821 227.028C102.999 228.686 100.839 230.338 99.8652 230.919C94.7332 231.785 88.4501 234.85 88.1823 234.981C87.7626 235.187 87.59 235.693 87.7986 236.112C87.9454 236.41 88.2441 236.582 88.5557 236.582C88.6819 236.582 88.808 236.556 88.9291 236.497C88.9934 236.464 95.0525 233.511 99.9013 232.63C100.336 233.103 101.163 234.259 100.944 236.063C100.658 238.414 95.3692 240.547 92.1041 241.336C92.0912 241.339 92.0526 241.354 92.014 241.367C91.9547 241.382 91.8955 241.393 91.8414 241.421C91.3084 241.578 90.0544 241.847 88.8158 241.285C87.6956 240.778 86.833 239.702 86.2536 238.088C84.6854 233.725 82.7747 224.757 83.2279 220.064C83.8202 213.938 90.3943 209.346 94.8723 208.043ZM88.705 204.654C89.6217 204.179 90.5024 203.778 91.3651 203.413V207.643C89.0527 208.799 86.5626 210.559 84.6597 212.846C84.5695 212.841 84.4794 212.838 84.3867 212.864C83.3927 213.137 82.5868 212.846 82.2984 212.104C81.7576 210.721 83.0168 207.596 88.705 204.654ZM104.503 227.118C104.691 226.674 105.757 224.474 109.553 220.714V228.128C109.553 230.477 110.68 232.548 112.403 233.897L111.692 234.182C108.945 235.284 105.263 236.759 101.925 237.988C102.291 237.456 102.551 236.883 102.626 236.264C102.878 234.195 102.113 232.717 101.472 231.877C102.654 231.019 104.567 229.271 104.503 227.118ZM103.8 224.908C103.354 224.232 102.785 223.734 102.25 223.41C103.499 222.285 105.167 220.247 104.173 217.991C102.955 215.228 99.5176 215.12 97.0765 215.439C98.9434 213.147 101.294 209.405 99.3142 206.885C99.0464 206.54 98.6241 206.335 98.1374 206.188V201.565C102.273 201.17 105.481 202.357 109.496 204.081C109.514 204.089 109.535 204.086 109.553 204.094V218.363C106.403 221.311 104.699 223.513 103.8 224.908Z" fill="#F4D1C5"/>
<path d="M212.732 162.628V162.397C212.732 161.216 211.771 160.257 210.593 160.257H195.938C194.76 160.257 193.799 161.216 193.799 162.397V162.628C193.799 163.809 194.76 164.77 195.938 164.77H196.75C197.217 164.77 197.595 165.149 197.595 165.614V173.239H208.939V165.614C208.939 165.149 209.317 164.77 209.781 164.77H210.593C211.771 164.77 212.732 163.809 212.732 162.628ZM180.213 173.242H168.871V165.581C168.871 165.112 168.494 164.734 168.027 164.734H167.215C166.037 164.734 165.076 163.775 165.076 162.595V162.363C165.076 161.183 166.037 160.224 167.215 160.224H181.87C183.048 160.224 184.006 161.183 184.006 162.363V162.595C184.006 163.775 183.048 164.734 181.87 164.734H181.058C180.591 164.734 180.213 165.112 180.213 165.581V173.242ZM181.903 172.794V166.427C182.226 166.424 182.537 166.368 182.838 166.288C182.519 168.399 182.206 170.567 181.903 172.794ZM223.688 156.479C223.653 156.497 223.632 156.528 223.601 156.551C223.552 156.587 223.504 156.621 223.465 156.664C223.429 156.705 223.403 156.752 223.375 156.798C223.35 156.844 223.319 156.888 223.301 156.939C223.28 156.996 223.275 157.055 223.267 157.114C223.262 157.15 223.244 157.186 223.244 157.225V173.242H215.785C217.097 150.994 219.601 135.951 223.231 128.47C223.501 128.535 223.822 128.607 224.225 128.694C225.946 129.072 228.737 129.689 232.134 130.759C232.858 139.67 233.443 149.589 233.12 150.693C232.671 151.354 227.864 154.234 223.688 156.479ZM208.939 180.659H197.595V228.241C197.595 231.374 200.139 233.92 203.267 233.92C206.394 233.92 208.939 231.374 208.939 228.241V180.659ZM207.25 227.84C207.25 230.039 205.462 231.826 203.267 231.826C201.069 231.826 199.282 230.039 199.282 227.84V186.173C199.282 185.704 199.659 185.326 200.126 185.326H206.405C206.872 185.326 207.25 185.704 207.25 186.173V227.84ZM174.978 158.531H167.215C165.107 158.531 163.389 160.249 163.389 162.361V162.595C163.389 164.696 165.089 166.409 167.184 166.424V173.239H153.216V166.46C155.311 166.442 157.008 164.729 157.008 162.628V162.397C157.008 160.391 155.457 158.758 153.493 158.598C157.853 152.94 162.439 148.054 167.86 143.384C171.927 139.876 175.653 137.201 179.009 135.128C176.182 139.405 171.247 146.887 170.558 148.034C169.631 149.582 172.281 154.373 174.978 158.531ZM181.872 158.531H176.998C174.387 154.584 171.801 149.816 172.032 148.849C172.898 147.416 181.436 134.522 182.301 133.218C186.486 130.939 189.973 129.625 192.685 128.74C189.468 133.881 186.61 143.885 183.983 159.172C183.377 158.768 182.653 158.531 181.872 158.531ZM242.04 217.044C239.385 202.171 235.421 179.602 235.38 178.367C235.362 177.907 234.941 177.583 234.519 177.542C234.06 177.549 233.69 177.915 233.69 178.375C233.69 179.779 239.206 210.771 240.266 216.715L229.998 221.778V157.222C229.998 156.754 229.62 156.376 229.153 156.376H227.371C230.434 154.648 234.155 152.393 234.655 151.392C235.269 150.16 234.471 138.752 233.875 131.333C235.929 132.035 238.153 132.901 240.482 133.969C240.623 134.149 240.828 134.272 241.075 134.293C241.103 134.293 241.126 134.282 241.155 134.282C247.423 137.24 254.314 141.661 260.285 148.394C276.123 166.247 284.155 225.209 279.51 238.222C278.21 241.866 270.355 248.684 240.315 260.465C226.115 266.033 212.133 270.644 206.661 272.406C206.952 271.519 207.065 270.48 206.99 269.284C206.474 261 197.027 246.868 191.899 242.453L241.583 217.949C241.92 217.784 242.107 217.414 242.04 217.044ZM223.244 225.111L220.982 226.225L223.244 213.855V225.111ZM223.244 204.558C223.237 204.584 223.221 204.604 223.216 204.633L219.095 227.159L214.763 229.293C214.683 224.378 214.419 203.041 215.405 180.659H223.244V204.558ZM204.71 266.136C205.031 267.298 205.244 268.397 205.306 269.392C205.414 271.135 205.046 272.393 204.253 273.175C204.25 273.175 204.248 273.175 204.248 273.175C204.058 273.234 203.917 273.36 203.814 273.512C202.14 274.234 198.334 271.549 195.507 268.867C200.478 267.592 204.268 266.311 204.61 266.193C204.648 266.18 204.674 266.154 204.71 266.136ZM173.712 271.035C170.363 335.151 169.583 398.8 169.493 406.901C162.295 406.53 146.013 401.798 142.6 400.788C143.846 377.776 150.014 313.163 155.082 261.921C159.46 266.661 167.095 269.811 173.712 271.035ZM117.131 235.576C121.19 235.576 124.49 232.271 124.49 228.208V192.576C129.41 188.647 133.172 185.293 135.665 182.611C136.268 181.963 136.846 181.312 137.408 180.659H138.495V228.241C138.495 228.887 138.602 229.501 138.759 230.098C131.844 234.19 123.578 237.469 114.165 239.871C114.763 238.292 114.902 236.376 114.922 235.198C115.623 235.422 116.355 235.576 117.131 235.576ZM174.544 233.886C177.669 233.886 180.213 231.338 180.213 228.208V180.659H168.871V228.208C168.871 231.338 171.416 233.886 174.544 233.886ZM174.544 231.793C172.346 231.793 170.561 230.003 170.561 227.804V186.137C170.561 185.668 170.938 185.29 171.403 185.29H177.681C178.149 185.29 178.526 185.668 178.526 186.137V227.804C178.526 230.003 176.739 231.793 174.544 231.793ZM215.682 271.218C229.972 266.393 254.787 257.449 269.485 248.923C269.631 249.983 269.97 251.737 270.538 254.679L273.842 271.768C276.58 285.908 280.239 304.761 283.898 323.615C290.638 358.336 297.389 393.057 298.414 398.332C296.696 398.993 291.499 400.875 283.176 402.909C283.061 402.881 282.943 402.873 282.819 402.899C282.678 402.927 282.563 402.997 282.457 403.084C269.143 406.281 248.162 409.778 220.728 409.478L220.091 392.015C220.104 391.954 220.124 391.892 220.122 391.828C220.119 391.766 220.094 391.717 220.078 391.66L215.682 271.218ZM203.457 322.588C207.255 324.255 214.046 350.813 217.433 367.159C217.444 367.219 217.477 367.265 217.5 367.316L218.365 391.048L203.696 391.612C202.622 356.41 202.124 325.752 203.311 322.55C203.349 322.55 203.393 322.56 203.457 322.588ZM136.389 162.628V162.397C136.389 161.216 137.347 160.257 138.525 160.257H153.182C154.361 160.257 155.319 161.216 155.319 162.397V162.628C155.319 163.809 154.361 164.77 153.182 164.77H152.371C151.904 164.77 151.526 165.149 151.526 165.614V173.239H140.182V165.614C140.182 165.149 139.804 164.77 139.337 164.77H138.525C137.347 164.77 136.389 163.809 136.389 162.628ZM151.526 180.659H140.182V228.241C140.182 231.374 142.726 233.92 145.854 233.92C148.981 233.92 151.526 231.374 151.526 228.241V180.659ZM149.836 227.84C149.836 230.039 148.049 231.826 145.854 231.826C143.656 231.826 141.871 230.039 141.871 227.84V186.173C141.871 185.704 142.249 185.326 142.716 185.326H148.994C149.459 185.326 149.836 185.704 149.836 186.173V227.84ZM113.22 235.56C113.125 237.759 112.596 240.701 111.125 240.848C109.253 241.033 108.215 238.791 107.827 237.716C109.525 237.047 111.153 236.391 112.534 235.836L113.22 235.56ZM122.803 228.208V180.659H111.458V228.208C111.458 231.338 114.003 233.886 117.131 233.886C120.258 233.886 122.803 231.338 122.803 228.208ZM121.116 227.804C121.116 230.003 119.329 231.793 117.131 231.793C114.933 231.793 113.148 230.003 113.148 227.804V186.137C113.148 185.668 113.525 185.29 113.993 185.29H120.271C120.738 185.29 121.116 185.668 121.116 186.137V227.804ZM159.684 208.408C159.247 208.32 158.831 208.583 158.711 209.005C158.7 209.046 157.517 212.973 153.216 218.147V180.659H167.184V228.208C167.184 230.623 168.366 232.75 170.163 234.092L171.064 240.406C165.42 239.668 159.856 239.469 157.173 240.899C159.068 221.969 160.362 209.323 160.362 209.323C160.405 208.889 160.113 208.493 159.684 208.408ZM109.802 160.221H124.459C125.638 160.221 126.595 161.18 126.595 162.361V162.595C126.595 163.775 125.638 164.734 124.459 164.734H123.645C123.18 164.734 122.803 165.112 122.803 165.581V173.239H111.458V165.581C111.458 165.112 111.081 164.734 110.616 164.734H109.802C108.623 164.734 107.666 163.775 107.666 162.595V162.361C107.666 161.18 108.623 160.221 109.802 160.221ZM172.754 240.298L172.012 235.098C172.805 235.393 173.65 235.576 174.544 235.576C174.993 235.576 175.43 235.519 175.858 235.442C175.727 237.314 175.602 239.192 175.476 241.077C174.574 240.923 173.658 240.773 172.733 240.637C172.762 240.529 172.769 240.413 172.754 240.298Z" fill="white"/>
<path d="M228.173 158.32H224.791V224.584L228.173 222.916V158.32ZM153.861 474.695C153.928 474.703 153.987 474.721 154.061 474.713C154.357 474.695 161.733 474.41 164.947 481.385C165.091 481.694 165.397 481.874 165.716 481.874C165.834 481.874 165.955 481.851 166.07 481.797C166.492 481.601 166.677 481.099 166.484 480.674C164.146 475.607 159.809 473.885 156.906 473.306C157.933 472.86 158.961 472.433 159.973 472.029C159.994 472.031 160.009 472.039 160.027 472.039C160.043 472.039 160.068 472.037 160.12 472.039C160.952 472.039 167.799 472.248 170.888 478.947C171.029 479.256 171.335 479.439 171.653 479.439C171.772 479.439 171.892 479.413 172.008 479.359C172.432 479.164 172.617 478.662 172.422 478.237C170.15 473.311 166.127 471.465 163.272 470.773C164.066 470.482 164.84 470.207 165.587 469.949C166.89 469.944 174.063 470.292 177.049 476.773C177.193 477.081 177.498 477.262 177.817 477.262C177.935 477.262 178.056 477.238 178.172 477.184C178.593 476.989 178.778 476.487 178.583 476.062C176.401 471.326 172.324 469.47 169.259 468.737C171.98 467.88 173.909 467.36 174.4 467.231C174.896 467.257 178.3 467.52 181.26 470.047C183.613 472.052 184.276 475.838 184.284 475.877C184.323 476.098 184.446 476.296 184.628 476.425C184.772 476.525 184.944 476.582 185.116 476.582C185.165 476.582 185.212 476.577 185.26 476.569L204.795 473.218L205.278 487.701C202.796 488.496 192.799 491.526 180.345 493.024C157.586 495.76 142.661 494.844 139.388 490.522C138.587 489.462 138.517 488.175 139.175 486.584C141.102 481.933 147.232 477.879 153.861 474.695ZM174.374 230.411C173.108 230.411 172.077 229.381 172.077 228.112V187.255H176.671V228.112C176.671 229.381 175.641 230.411 174.374 230.411ZM116.927 230.411C115.661 230.411 114.633 229.381 114.633 228.112V187.255H119.224V228.112C119.224 229.381 118.194 230.411 116.927 230.411ZM96.4835 245.02C96.4835 245.486 96.8612 245.864 97.3288 245.864H156.356C156.384 245.864 156.41 245.851 156.438 245.849C157.846 247.231 160.431 248.428 162.956 249.344C158.599 249.221 152.597 249.12 146.366 249.244C146.359 249.244 146.354 249.249 146.348 249.249H97.1284C94.9111 249.249 93.1049 247.442 93.1049 245.221V243.239C93.778 243.061 95.0576 242.688 96.4835 242.109V245.02ZM96.4835 158.32V206.402C95.8669 206.451 95.2014 206.554 94.4435 206.775C94.0221 206.899 93.5699 207.061 93.1049 207.241V158.32H96.4835ZM247.913 477.673C247.954 477.676 247.992 477.691 248.036 477.686C248.349 477.681 255.703 477.424 258.917 484.401C259.061 484.71 259.366 484.89 259.685 484.89C259.803 484.89 259.924 484.867 260.037 484.813C260.461 484.618 260.646 484.116 260.451 483.691C258.126 478.649 253.83 476.899 250.931 476.299C252.154 475.766 253.372 475.269 254.57 474.801C254.603 474.806 254.634 474.822 254.667 474.822C254.952 474.827 261.627 474.966 264.854 481.964C264.996 482.273 265.302 482.453 265.623 482.453C265.741 482.453 265.859 482.43 265.975 482.376C266.399 482.18 266.584 481.678 266.388 481.254C264.117 476.327 260.33 474.394 257.676 473.63C258.318 473.398 258.948 473.174 259.557 472.966C260.862 472.956 268.03 473.308 271.018 479.789C271.16 480.095 271.465 480.278 271.786 480.278C271.905 480.278 272.023 480.255 272.138 480.201C272.562 480.005 272.747 479.501 272.552 479.079C270.368 474.34 266.278 472.487 263.213 471.759C265.941 470.896 267.876 470.376 268.367 470.248C268.865 470.274 272.267 470.536 275.227 473.061C277.583 475.069 278.246 478.855 278.251 478.893C278.289 479.117 278.418 479.318 278.605 479.447C278.747 479.547 278.914 479.599 279.086 479.599C279.14 479.599 279.194 479.593 279.248 479.581L296.403 476.178L299.142 490.749C296.498 491.59 286.601 494.563 274.309 496.038C251.553 498.774 236.628 497.86 233.355 493.536C232.553 492.478 232.484 491.191 233.144 489.601C235.079 484.929 241.253 480.862 247.913 477.673ZM98.5133 175.197H223.085V179.235H98.5107V175.197H98.5133Z" fill="#F4B47E"/>
<path d="M205.417 228.259V187.442H200.823V228.259C200.823 229.524 201.854 230.556 203.121 230.556C204.389 230.556 205.417 229.524 205.417 228.259ZM292.589 455.693L249.668 456.92C248.105 452.263 237.813 421.633 234.564 411.363C255.103 410.605 271.238 407.838 282.303 405.22L292.589 455.693ZM147.937 187.442V228.259C147.937 229.524 146.906 230.556 145.638 230.556C144.371 230.556 143.34 229.524 143.34 228.259V187.442H147.937ZM170.99 408.167C170.995 407.488 171.648 339.899 175.206 271.72C175.23 271.725 175.255 271.73 175.278 271.733C176.266 271.869 177.335 271.928 178.461 271.928C183.066 271.928 188.621 270.907 193.419 269.758C195.02 271.373 199.656 275.734 203.06 275.734C203.78 275.734 204.44 275.536 205.011 275.075C206.186 274.705 209.4 273.69 213.881 272.193L217.038 358.541C216.164 354.766 215.05 350.156 213.816 345.509C208.492 325.466 205.659 322.177 203.99 321.444C203.363 321.172 202.733 321.205 202.17 321.544C201.268 322.084 199.756 322.992 201.839 391.086C201.854 391.549 201.867 392.014 201.882 392.477C201.808 392.611 201.754 392.757 201.759 392.922C201.767 393.081 201.828 393.22 201.908 393.344C202.831 422.932 204.037 452.088 204.265 457.547L173.641 456.619L172.543 456.585L163.879 456.323C163.283 452.055 160.149 429.136 158.416 407.175C162.969 408.206 167.378 409.003 170.142 409.003C170.607 409.003 170.985 408.63 170.99 408.167Z" fill="#ADE1DA"/>
</svg>
